<svg xmlns="http://www.w3.org/2000/svg" width="33.374" height="15.717" viewBox="0 0 33.374 15.717">
  <g id="back_copy" data-name="back copy" transform="translate(0.341 0.376)">
    <path id="Path" d="M32.381,1.364H.619A.653.653,0,0,1,0,.682.653.653,0,0,1,.619,0H32.381A.653.653,0,0,1,33,.682.653.653,0,0,1,32.381,1.364Z" transform="translate(0.034 6.818)" fill="#dadada"/>
    <path id="Path-2" data-name="Path" d="M7.879,15a.312.312,0,0,1-.214-.084L.088,7.7a.279.279,0,0,1,0-.407L7.666.084a.313.313,0,0,1,.427,0,.278.278,0,0,1,0,.407L.73,7.5l7.364,7.01a.278.278,0,0,1,0,.407A.31.31,0,0,1,7.879,15Z" fill="none" stroke="#dadada" stroke-miterlimit="10" stroke-width="0.682"/>
  </g>
</svg>
