<svg xmlns="http://www.w3.org/2000/svg" width="33.374" height="15.717" viewBox="0 0 33.374 15.717">
  <g id="back_copy_2" data-name="back copy 2" transform="translate(33.034 0.376)">
    <path id="Path" d="M-32.381,1.364H-.619A.653.653,0,0,0,0,.682.653.653,0,0,0-.619,0H-32.381A.653.653,0,0,0-33,.682.653.653,0,0,0-32.381,1.364Z" transform="translate(-0.034 6.818)" fill="#fff"/>
    <path id="Path-2" data-name="Path" d="M-7.879,15a.312.312,0,0,0,.214-.084L-.088,7.7A.283.283,0,0,0,0,7.5a.283.283,0,0,0-.088-.2L-7.666.084a.313.313,0,0,0-.427,0,.278.278,0,0,0,0,.407L-.73,7.5l-7.364,7.01a.278.278,0,0,0,0,.407A.31.31,0,0,0-7.879,15Z" fill="#fff" stroke="#fff" stroke-miterlimit="10" stroke-width="0.682"/>
  </g>
</svg>
